<svg id="Layer_1" data-name="Layer 1" xmlns="http://www.w3.org/2000/svg" xmlns:xlink="http://www.w3.org/1999/xlink" viewBox="0 0 1863 609"><defs><linearGradient id="linear-gradient" y1="304.5" x2="1863" y2="304.5" gradientUnits="userSpaceOnUse"><stop offset="0" stop-color="#00ff9e" stop-opacity="0.5"/><stop offset="0.14" stop-color="#20fdad" stop-opacity="0.5"/><stop offset="0.72" stop-color="#a1f4e8" stop-opacity="0.5"/><stop offset="1" stop-color="#d4f1ff" stop-opacity="0.5"/></linearGradient></defs><rect width="1863" height="609" style="fill:url(#linear-gradient)"/><path d="M1069.75,459.85c0,6.83-.27,13.67.06,20.48.74,15.43-5.7,27.28-17.4,36.8-3.74,3-7.17,6.46-10.71,9.73-2.26,2.1-3.08,3.62.83,5.2,28.22,11.37,47.92,39.35,47.35,71.09-.26,14.15,0,28.31-.06,42.46,0,11.16-8.42,19.76-19.32,20-12.12.23-21.17-7.75-21.39-19.45-.27-13.81,0-27.64,0-41.46,0-18.67-8.84-30.73-26.54-36.5-12.86-4.2-31.06,3.17-38.22,15.24a39,39,0,0,0-5.45,20.43c0,13.66.07,27.31,0,41-.11,15.26-13.61,24.7-27.92,19.64-7-2.48-12.72-10.06-12.76-17.51-.08-16.82-.63-33.67.19-50.45A67.85,67.85,0,0,1,957,552.32c15.09-16,32.28-29.73,48.27-44.75,7.73-7.26,16.4-13.67,19.6-24.6,1.25-4.25,1.38-8.51,1.49-12.83.32-13-.85-26,.6-38.93,1.41-12.55,10.51-19.58,23.71-18.76,10.33.65,18.87,10.22,19.1,21.42,0,.33,0,.66,0,1Q1069.76,447.35,1069.75,459.85Z" transform="translate(-37 -231)" style="fill:#8ec6ec"/><path d="M961,412.59c11.18-.52,19.93,7.64,20,18.77.06,15.15-.13,30.3,0,45.45.27,23-9.53,41.39-25.92,56.66-14.23,13.25-28.78,26.16-43.17,39.24-4.41,4-9.21,7.64-12.63,12.68-4.78,7-6.23,15-6.3,23.21-.09,12,.1,24-.09,35.95-.15,9.62-5.83,17.41-14.27,20.27a22.23,22.23,0,0,1-16.27-.64,22,22,0,0,1-8.41-6.63,22.76,22.76,0,0,1-4.67-12.37q0-27.23,0-54.44a40.81,40.81,0,0,1,3.24-12.3c4.1-9.24,10.37-13.69,21-23.08a48.5,48.5,0,0,0,3.75-3.52c5.15-5.2,14.6-13.87,14.6-13.87.51-.46,7.56-7,21.66-20.12,17.78-16.53,21.51-20.25,24-27.41,1.32-3.83,1.74-7.65,2.41-15.31a145.54,145.54,0,0,0,.36-26.92A79.82,79.82,0,0,1,940,433.8c.4-5,1.1-7.3,2-9.27a21.07,21.07,0,0,1,6.56-8.08A20.75,20.75,0,0,1,961,412.59Z" transform="translate(-37 -231)" style="fill:#f2a4c8"/><path d="M879.76,549.44c.52-2.77-1.8-2.68-3.37-3.36-22.95-9.92-38-26.9-44.71-51a74.87,74.87,0,0,1-2.42-21.71c.23-13.47,0-27,.07-40.43,0-10.18,6.6-18.82,15.56-20.42,11.07-2,20.31,2.88,24.33,12.77,1.1,2.72.83,5.56.9,8.37.4,15.46-.92,30.95.76,46.37,1.44,13.19,8.59,22.3,20.69,27.64a36.62,36.62,0,0,0,11.84,2.92c15.39,1,27-9.46,29.53-11.88h0l-2.73,3.56c-4.14,5.38-31.39,29.36-38.38,35.66C889,540.56,884.74,544.46,879.76,549.44Z" transform="translate(-37 -231)" style="fill:#f2a4c8"/></svg>