<svg id="Layer_1" data-name="Layer 1" xmlns="http://www.w3.org/2000/svg" viewBox="0 0 157.5 158.08"><path fill="currentColor" d="M880.91,540.33a78.75,78.75,0,1,1,157.49,0c-.14,43.83-35.23,79.12-78.73,79.19S880.89,584,880.91,540.33Zm37.22-18c0,13.23-.17,24.16.06,35.08.15,6.87,4,10.19,11,10.17q30.54-.08,61.1,0c7,0,10.66-3.48,10.84-10.26.24-9.35-.06-18.71.15-28,.14-6.28-2.27-5.73-6.34-3-9.69,6.52-19.69,12.58-29.16,19.4-4.59,3.3-7.82,3-12.33-.13C942.53,538,931.23,530.92,918.13,522.36Zm5.15-8.34-.81,2.21c10.27,6.75,20.76,13.19,30.71,20.38,5,3.6,8.6,3.43,13.27-.25,5-3.91,10.69-6.84,15.82-10.55,4.82-3.49,10.93-5.52,14.84-11.79Z" transform="translate(-880.91 -461.42)"/></svg>