<svg id="Layer_1" data-name="Layer 1" xmlns="http://www.w3.org/2000/svg" viewBox="0 0 157.95 158.07"><path fill="currentColor" d="M223,389a79,79,0,0,1,158-.91c.48,43.12-35.09,79.14-78.63,79.61C259.1,468.15,223.18,432.51,223,389Zm44.34-19.78c.34,21.24,30.43,52.66,51.54,53.75,6.93.36,12.43-2.49,15.94-8.41,1.94-3.26,3-8.2-.69-9.94-6.63-3.12-14-8.14-21.47-2.5-4.92,3.7-8.57,2.23-12.51-.88a64.79,64.79,0,0,1-12.91-13.88c-2.87-4.09-3.82-7.14.51-11,7.57-6.7.08-12.72-1.77-18.75-1.06-3.47-4.86-4.79-8.37-2.88C271.94,357.82,266.63,361.44,267.35,369.19Z" transform="translate(-223.01 -309.61)"/></svg>